<?xml version="1.0" standalone="no"?><!DOCTYPE svg PUBLIC "-//W3C//DTD SVG 1.1//EN" "http://www.w3.org/Graphics/SVG/1.1/DTD/svg11.dtd"><svg t="1559420024032" class="icon" style="" viewBox="0 0 1024 1024" version="1.1" xmlns="http://www.w3.org/2000/svg" p-id="2094" xmlns:xlink="http://www.w3.org/1999/xlink" width="48" height="48"><defs><style type="text/css"></style></defs><path d="M769.498632 773.805728c-37.512359 0.132006-67.868737 28.021194-67.831898 62.34186 0.105401 34.341133 30.534434 62.161758 68.086701 62.108546 37.515429-0.079818 67.868737-27.957749 67.794036-62.310138C837.476863 801.626353 807.04783 773.805728 769.498632 773.805728zM316.376601 736.727251c-48.749284 0-88.222297 36.119639-88.222297 80.7143 0 44.620243 39.473013 80.814584 88.222297 80.814584 48.745191 0 88.225367-36.19434 88.225367-80.814584C404.601968 772.847913 365.121791 736.727251 316.376601 736.727251zM886.259916 690.773639 282.823414 690.773639l-4.77884-60.531632 616.416118 0 64.029292-332.324828-713.644533-87.795579-0.769526-9.776667-0.037862-0.306992c0 0-2.287089-17.038048-20.590967-15.895015-17.960047 1.101077-16.523325 18.22406-16.523325 18.22406l0 0.301875 0.523933 6.653537-118.616538-23.749914-0.343831-0.058328c0 0-18.538215-2.741437-22.446221 13.624299-3.852748 16.128329 14.501272 19.653619 14.501272 19.653619l0.346901 0.053212 129.362276 25.915229 15.464203 195.631586 0 30.133298 2.379187 0L246.907413 708.489116c0 7.54279 3.928472 11.570523 8.18031 13.772678 1.568728 0.915859 3.441379 1.598404 5.664 1.980097 2.797719 0.587378 4.91187 0.587378 4.91187 0.587378l0.330528 0.021489 620.265796 0c0 0 18.759249 0.137123 18.759249-16.360619C905.019165 691.694615 886.259916 690.773639 886.259916 690.773639zM819.823807 315.288826l95.370091 11.740392-21.193695 109.449761-84.709287 0L819.823807 315.288826zM806.323329 470.523353l81.083713 0L863.139336 595.874269l-67.716264 0.058328L806.323329 470.523353zM643.941008 293.634644l138.931213 17.11275-10.937097 125.731586L634.0528 436.478979 643.941008 293.634644zM631.686916 470.523353l137.28676 0-10.903328 125.419478-135.074372 0.068562L631.686916 470.523353zM415.790798 265.533632l191.168947 23.549346-10.211573 147.396002L410.694733 436.478979 415.790798 265.533632zM409.677567 470.523353l184.704722 0-8.683776 125.509529-179.769316 0.095167L409.677567 470.523353zM247.587911 244.843404l131.085524 16.128329-5.232165 175.507246L262.732843 436.478979 247.587911 244.843404zM265.422092 470.523353l107.002013 0-3.741207 125.620046-93.327572 0.021489L265.422092 470.523353z" p-id="2095" fill="#17a2b8"></path></svg>